HIERARCHY
ROOT Hips
{
  OFFSET 53.7814 91.6345 8.66052
  CHANNELS 6 Xposition Yposition Zposition Zrotation Xrotation Yrotation
  JOINT spine
  {
    OFFSET 0 6.84637 0.3937
    CHANNELS 3 Zrotation Xrotation Yrotation
    JOINT spine1
    {
      OFFSET 0 9.49621 0
      CHANNELS 3 Zrotation Xrotation Yrotation
      JOINT spine2
      {
        OFFSET 0 9.09909 0
        CHANNELS 3 Zrotation Xrotation Yrotation
        JOINT Neck
        {
          OFFSET 0 23.3612 1.11378
          CHANNELS 3 Zrotation Xrotation Yrotation
          JOINT Head
          {
            OFFSET 0 7.05802 0
            CHANNELS 3 Zrotation Xrotation Yrotation
            End Site
            {
              OFFSET 0 17.0844 -5.63419
            }
          }
        }
        JOINT RightShoulder
        {
          OFFSET -3.83136 9.82631 -0.533491
          CHANNELS 3 Zrotation Xrotation Yrotation
          JOINT RightArm
          {
            OFFSET 0 12.8881 0
            CHANNELS 3 Zrotation Xrotation Yrotation
            JOINT RightArmRoll
            {
              OFFSET 0 6.50617 0
              CHANNELS 3 Zrotation Xrotation Yrotation
              JOINT RightForeArm
              {
                OFFSET 0 18.9501 0
                CHANNELS 3 Zrotation Xrotation Yrotation
                JOINT RightForeArmRoll
                {
                  OFFSET 0 7.30092 0
                  CHANNELS 3 Zrotation Xrotation Yrotation
                  JOINT RightHand
                  {
                    OFFSET 0 14.6514 0
                    CHANNELS 3 Zrotation Xrotation Yrotation
                    End Site
                    {
                      OFFSET 0 0 0
                    }
                  }
                }
              }
            }
          }
        }
        JOINT LeftShoulder
        {
          OFFSET 3.83136 9.82631 -0.533491
          CHANNELS 3 Zrotation Xrotation Yrotation
          JOINT LeftArm
          {
            OFFSET 0 12.8881 0
            CHANNELS 3 Zrotation Xrotation Yrotation
            JOINT LeftArmRoll
            {
              OFFSET 0 6.50616 0
              CHANNELS 3 Zrotation Xrotation Yrotation
              JOINT LeftForeArm
              {
                OFFSET 0 18.9501 0
                CHANNELS 3 Zrotation Xrotation Yrotation
                JOINT LeftForeArmRoll
                {
                  OFFSET 0 7.30092 0
                  CHANNELS 3 Zrotation Xrotation Yrotation
                  JOINT LeftHand
                  {
                    OFFSET 0 14.6514 0
                    CHANNELS 3 Zrotation Xrotation Yrotation
                    End Site
                    {
                      OFFSET 0 0 0
                    }
                  }
                }
              }
            }
          }
        }
      }
    }
  }
  JOINT RightUpLeg
  {
    OFFSET -6.06837 -1.11278 -0.933477
    CHANNELS 3 Zrotation Xrotation Yrotation
    JOINT RightUpLegRoll
    {
      OFFSET 0 17.1796 0
      CHANNELS 3 Zrotation Xrotation Yrotation
      JOINT RightLeg
      {
        OFFSET 0 -21.2743 0
        CHANNELS 3 Zrotation Xrotation Yrotation
        JOINT RightLegRoll
        {
          OFFSET 0 21.3439 0
          CHANNELS 3 Zrotation Xrotation Yrotation
          JOINT RightFoot
          {
            OFFSET 0 17.7652 0
            CHANNELS 3 Zrotation Xrotation Yrotation
            JOINT RightToeBase
            {
              OFFSET 0 14.8508 0
              CHANNELS 3 Zrotation Xrotation Yrotation
              End Site
              {
                OFFSET 0.0062947 7.19214 -0.829004
              }
            }
          }
        }
      }
    }
  }
  JOINT LeftUpLeg
  {
    OFFSET 6.06837 -1.11278 -0.933477
    CHANNELS 3 Zrotation Xrotation Yrotation
    JOINT LeftUpLegRoll
    {
      OFFSET 0 17.1797 0
      CHANNELS 3 Zrotation Xrotation Yrotation
      JOINT LeftLeg
      {
        OFFSET 0 21.2742 0
        CHANNELS 3 Zrotation Xrotation Yrotation
        JOINT LeftLegRoll
        {
          OFFSET 0 21.5412 0
          CHANNELS 3 Zrotation Xrotation Yrotation
          JOINT LeftFoot
          {
            OFFSET 0 17.5679 0
            CHANNELS 3 Zrotation Xrotation Yrotation
            JOINT LeftToeBase
            {
              OFFSET 0 14.8508 0
              CHANNELS 3 Zrotation Xrotation Yrotation
              End Site
              {
                OFFSET -0.0282102 7.19214 -0.829004
              }
            }
          }
        }
      }
    }
  }
}
MOTION
Frames: 7
Frame Time: 0.00208333
53.7187 91.653 6.77507 -0.0455401 -2.63695 -0.896069 0.144836 -1.66337 -0.112713 0.288257 0.675755 -0.240142 0.291346 2.32082 -0.245058 -5.10872 24.643 1.88309 3.15892 -5.05758 0.28093 70.4512 5.70044 1.42463 101.754 3.07639 11.5527 2.57123e-007 -3.43172e-008 -3.31945e-006 12.5775 13.7051 -2.46142 9.32803e-006 4.03022e-006 -2.99999 8.02885 -4.95141 0.697646 -68.0865 0.466149 0.829948 -105.829 10.3054 -19.7052 1.06335e-007 -9.35895e-007 1.89217e-006 -12.7593 3.29664 0.686907 3.40111e-006 -1.74629e-006 3.0045 -8.02886 -4.95148 -0.697695 175.492 0.618954 1.21859 180 7.01542e-015 178.903 177.926 4.49895 179.954 -3.65571e-006 3.61064e-006 0.0377666 -18.6518 67.8825 19.4261 8.13649 25.2327 -3.48774 -175.008 -2.77343 -0.16485 4.54188e-006 -4.6773e-006 -1.16656 -1.56594 -4.3228 0.0550147 -1.37099e-006 -3.52311e-006 -0.0373791 18.6783 67.9114 -19.458 -8.13649 25.2327 3.48774 
53.7209 91.6542 6.77928 -0.0512858 -2.64578 -0.901555 0.145846 -1.66159 -0.112659 0.290209 0.679313 -0.240339 0.293298 2.32438 -0.24529 -5.10923 24.6448 1.88508 3.16965 -5.05736 0.284122 70.4503 5.71588 1.43222 101.706 3.07793 11.4391 2.57123e-007 -3.43172e-008 -3.31945e-006 12.6653 13.7227 -2.4674 9.32803e-006 4.03022e-006 -2.99999 8.02885 -4.95141 0.697646 -68.1043 0.482826 0.823579 -105.745 10.2756 -19.6465 1.06335e-007 -9.35895e-007 1.89217e-006 -12.8393 3.34818 0.695519 3.40111e-006 -1.74629e-006 3.0045 -8.02886 -4.95148 -0.697695 175.5 0.60882 1.21309 180 7.01542e-015 178.903 177.93 4.50053 179.954 -3.65571e-006 3.61064e-006 0.0377666 -18.6517 67.8823 19.4258 8.13649 25.2327 -3.48774 -175.002 -2.78691 -0.169436 4.54188e-006 -4.6773e-006 -1.16656 -1.56644 -4.32153 0.0550121 -1.37099e-006 -3.52311e-006 -0.0373791 18.6782 67.9112 -19.4581 -8.13649 25.2327 3.48774 
53.7299 91.6548 6.79006 -0.0570225 -2.65459 -0.907095 0.146819 -1.65977 -0.112615 0.292085 0.682944 -0.240583 0.295174 2.32801 -0.245566 -5.10921 24.6458 1.88707 3.18017 -5.05669 0.287514 70.4497 5.73095 1.43958 101.659 3.07983 11.3272 2.57123e-007 -3.43172e-008 -3.31945e-006 12.7521 13.7373 -2.47286 9.32803e-006 4.03022e-006 -2.99999 8.02885 -4.95141 0.697646 -68.1215 0.499386 0.817198 -105.663 10.2452 -19.5886 1.06335e-007 -9.35895e-007 1.89217e-006 -12.9186 3.39872 0.703937 3.40111e-006 -1.74629e-006 3.0045 -8.02886 -4.95148 -0.697695 175.508 0.598564 1.20718 180 7.01542e-015 178.903 177.935 4.50246 179.954 -3.65571e-006 3.61064e-006 0.0377666 -18.6514 67.882 19.4254 8.13649 25.2327 -3.48774 -174.995 -2.80042 -0.173974 4.54188e-006 -4.6773e-006 -1.16656 -1.56691 -4.3202 0.0550126 -1.37099e-006 -3.52311e-006 -0.0373791 18.6781 67.9111 -19.4583 -8.13649 25.2327 3.48774 
53.7264 91.6581 6.7918 -0.0627534 -2.66338 -0.912674 0.147767 -1.65793 -0.112579 0.293908 0.686627 -0.240858 0.296998 2.33169 -0.245873 -5.10882 24.6464 1.88906 3.19056 -5.05572 0.291046 70.4493 5.74577 1.44677 101.613 3.08198 11.2166 2.57123e-007 -3.43172e-008 -3.31945e-006 12.8382 13.7499 -2.47797 9.32803e-006 4.03022e-006 -2.99999 8.02885 -4.95141 0.697646 -68.1384 0.515865 0.810808 -105.583 10.2144 -19.5313 1.06335e-007 -9.35895e-007 1.89217e-006 -12.9974 3.44856 0.712218 3.40111e-006 -1.74629e-006 3.0045 -8.02886 -4.95148 -0.697695 175.516 0.588223 1.20099 180 7.01542e-015 178.903 177.94 4.50465 179.953 -3.65571e-006 3.61064e-006 0.0377666 -18.6511 67.8816 19.4249 8.13649 25.2327 -3.48774 -174.988 -2.81395 -0.178478 4.54188e-006 -4.6773e-006 -1.16656 -1.56736 -4.31885 0.0550155 -1.37099e-006 -3.52311e-006 -0.0373791 18.678 67.911 -19.4584 -8.13649 25.2327 3.48774 
53.724 91.6579 6.78722 -0.0684818 -2.67217 -0.918276 0.148699 -1.65607 -0.112547 0.295701 0.690338 -0.241152 0.298791 2.3354 -0.246197 -5.10822 24.6467 1.89105 3.20086 -5.05456 0.294659 70.449 5.76045 1.45387 101.567 3.08425 11.1067 2.57123e-007 -3.43172e-008 -3.31945e-006 12.9238 13.7613 -2.48288 9.32803e-006 4.03022e-006 -2.99999 8.02885 -4.95141 0.697646 -68.1551 0.532297 0.804415 -105.503 10.1833 -19.4743 1.06335e-007 -9.35895e-007 1.89217e-006 -13.076 3.498 0.720422 3.40111e-006 -1.74629e-006 3.0045 -8.02886 -4.95148 -0.697695 175.524 0.577833 1.19462 180 7.01542e-015 178.902 177.946 4.50697 179.953 -3.65571e-006 3.61064e-006 0.0377666 -18.6508 67.8812 19.4244 8.13649 25.2327 -3.48774 -174.982 -2.82749 -0.182962 4.54188e-006 -4.6773e-006 -1.16656 -1.56781 -4.31747 0.0550197 -1.37099e-006 -3.52311e-006 -0.0373791 18.6779 67.9109 -19.4585 -8.13649 25.2327 3.48774 
53.7239 91.6566 6.79301 -0.0742109 -2.68096 -0.923883 0.149629 -1.65421 -0.112516 0.297486 0.694057 -0.241451 0.300576 2.33912 -0.246527 -5.10756 24.6469 1.89304 3.21114 -5.05336 0.298291 70.4488 5.77508 1.46095 101.521 3.08656 10.997 2.57123e-007 -3.43172e-008 -3.31945e-006 13.0094 13.7724 -2.48773 9.32803e-006 4.03022e-006 -2.99999 8.02885 -4.95141 0.697646 -68.1717 0.548717 0.79802 -105.423 10.1521 -19.4173 1.06335e-007 -9.35895e-007 1.89217e-006 -13.1545 3.54734 0.728607 3.40111e-006 -1.74629e-006 3.0045 -8.02886 -4.95148 -0.697695 175.531 0.567431 1.18822 180 7.01542e-015 178.902 177.951 4.50935 179.953 -3.65571e-006 3.61064e-006 0.0377666 -18.6504 67.8808 19.4239 8.13649 25.2327 -3.48774 -174.975 -2.84104 -0.187442 4.54188e-006 -4.6773e-006 -1.16656 -1.56825 -4.31609 0.0550242 -1.37099e-006 -3.52311e-006 -0.0373791 18.6778 67.9107 -19.4586 -8.13649 25.2327 3.48774 
53.7198 91.6584 6.80565 -0.0799438 -2.68975 -0.929479 0.150565 -1.65236 -0.112483 0.299286 0.697762 -0.24174 0.302377 2.34282 -0.246847 -5.10701 24.6473 1.89503 3.22146 -5.05225 0.301883 70.4485 5.78979 1.46808 101.475 3.08878 10.8869 2.57123e-007 -3.43172e-008 -3.31945e-006 13.0952 13.7841 -2.49269 9.32803e-006 4.03022e-006 -2.99999 8.02885 -4.95141 0.697646 -68.1884 0.56516 0.791628 -105.343 10.121 -19.3603 1.06335e-007 -9.35895e-007 1.89217e-006 -13.2332 3.59687 0.736834 3.40111e-006 -1.74629e-006 3.0045 -8.02886 -4.95148 -0.697695 175.539 0.557054 1.1819 180 7.01542e-015 178.902 177.957 4.51164 179.952 -3.65571e-006 3.61064e-006 0.0377666 -18.6501 67.8804 19.4233 8.13649 25.2327 -3.48774 -174.968 -2.85458 -0.191931 4.54188e-006 -4.6773e-006 -1.16656 -1.56869 -4.31472 0.055028 -1.37099e-006 -3.52311e-006 -0.0373791 18.6777 67.9106 -19.4587 -8.13649 25.2327 3.48774 
